<svg id="epkd9jgrn3e1" xmlns="http://www.w3.org/2000/svg" xmlns:xlink="http://www.w3.org/1999/xlink" viewBox="0 0 512 512" shape-rendering="geometricPrecision" text-rendering="geometricPrecision"><style><![CDATA[#epkd9jgrn3e1{pointer-events: all}#epkd9jgrn3e1:hover #epkd9jgrn3e6_to {animation: epkd9jgrn3e6_to__to 3000ms linear 1 normal forwards}@keyframes epkd9jgrn3e6_to__to { 0% {transform: translate(-97.928094px,125.258928px)} 40% {transform: translate(-97.928094px,125.258928px);animation-timing-function: cubic-bezier(0.420000,0,0.580000,1)} 46.666667% {transform: translate(-74.829276px,125.258928px)} 53.333333% {transform: translate(-97.928094px,125.258928px)} 66.666667% {transform: translate(-144.825361px,127.470415px)} 76.666667% {transform: translate(-113.277699px,127.470415px)} 100% {transform: translate(-113.277699px,123.343985px)} }#epkd9jgrn3e1:hover #epkd9jgrn3e7_to {animation: epkd9jgrn3e7_to__to 3000ms linear 1 normal forwards}@keyframes epkd9jgrn3e7_to__to { 0% {transform: translate(-86.737000px,102.270000px)} 33.333333% {transform: translate(-86.737000px,102.270000px)} 40% {transform: translate(-37.238192px,102.660048px)} 46.666667% {transform: translate(-84.135459px,102.660048px)} 53.333333% {transform: translate(-67.433755px,102.660048px)} 66.666667% {transform: translate(-92.388319px,100.745105px)} 76.666667% {transform: translate(-86.821085px,100.745105px)} 100% {transform: translate(-86.821085px,100.745105px)} }#epkd9jgrn3e1:hover #epkd9jgrn3e8_to {animation: epkd9jgrn3e8_to__to 3000ms linear 1 normal forwards}@keyframes epkd9jgrn3e8_to__to { 0% {transform: translate(-151.299487px,-124.916011px)} 6.666667% {transform: translate(-129.716464px,-157.065770px)} 13.333333% {transform: translate(-92.209188px,-104.502818px)} 23.333333% {transform: translate(-53.917153px,76.205440px)} 33.333333% {transform: translate(-37.200471px,82.958285px)} 46.666667% {transform: translate(-34.598930px,82.958285px)} 53.333333% {transform: translate(-77.206070px,82.958285px)} 90% {transform: translate(-106.897987px,82.958285px)} 100% {transform: translate(-106.897987px,82.958285px)} }]]></style><path id="epkd9jgrn3e2" display="none" d="M258.653000,203.933000C250.398000,203.933000,243.463000,209.516000,241.373000,217.106000C253.678000,217.989000,264.559000,224.883000,270.744000,235.102000C274.331000,231.821000,276.594000,227.118000,276.594000,221.875000C276.594000,211.966000,268.561000,203.933000,258.653000,203.933000Z" fill="rgb(0,0,0)" stroke="none" stroke-width="1"/><path id="epkd9jgrn3e3" d="M236.626000,233.133000L156.687000,240.695000L115.629000,181.961000L146.591000,212.133000L147.962000,202.442000C148.957000,195.408000,148.259000,188.528000,146.189000,182.204000C124.697000,180.891000,105.191000,169.030000,94.334000,149.479000L87.715000,148.543000C57.028000,144.202000,28.632000,165.559000,24.290000,196.247000L5.065000,322.230000C2.180000,341.135000,13.943000,359.195000,32.400000,364.199000L66.823000,373.531000L18.549000,389.201000C4.458000,393.775000,-3.256000,408.906000,1.317000,422.997000C5.891000,437.088000,21.021000,444.803000,35.113000,440.229000L169.102000,396.735000C180.390000,393.071000,187.928000,382.426000,187.636000,370.562000C187.345000,358.698000,179.292000,348.436000,167.839000,345.331000L87.534000,323.561000L170.372000,327.062000C188.603000,327.832000,203.726000,339.727000,209.498000,355.920000L216.539000,326.870000C218.310000,319.562000,216.932000,311.846000,212.741000,305.603000C209.757000,301.156000,205.537000,297.755000,200.672000,295.753000C191.938000,296.579000,150,300.546000,143.726000,301.139000C131.479000,302.297000,120.317000,295.342000,115.530000,284.719000L80.450000,206.548000L128.673000,275.532000C132.709000,281.307000,139.294000,284.697000,146.257000,284.697000C148.176000,284.697000,142.882000,285.078000,240.666000,275.863000C252.466000,274.747000,261.125000,264.277000,260.010000,252.478000C258.894000,240.677000,248.402000,232.015000,236.626000,233.133000Z" fill="rgb(0,0,0)" stroke="none" stroke-width="1"/><path id="epkd9jgrn3e4" d="M183.385490,418.372597L142.717000,432.406797C146.656589,442.946272,155.176507,451.365443,166.332967,454.239723C184.603527,458.948362,202.999697,447.012886,207.426501,427.599696L213.214716,402.210000C200.986129,414.403096,188.822250,416.028393,183.385490,418.372597Z" transform="matrix(1 0 0 1 7.29850117499998 -11.80526797999994)" fill="rgb(0,0,0)" stroke="none" stroke-width="1"/><path id="epkd9jgrn3e5" d="M155.061270,173.290351C183.451703,172.554923,205.890396,149.321781,205.575221,121.250799C205.250366,92.197115,180.489279,68.929866,150.810181,70.531821C150.449828,70.551006,150.090551,70.578718,149.731274,70.605364C122.993086,72.585691,101.451510,94.855315,101.760231,122.518081C102.076481,150.669000,125.582249,174.032174,155.061270,173.290351Z" fill="rgb(0,0,0)" stroke="none" stroke-width="1"/><g id="epkd9jgrn3e6_to" transform="translate(-97.928094,125.258928)"><ellipse id="epkd9jgrn3e6" rx="17.941000" ry="17.941000" transform="rotate(-13.299584) scale(0.999814,0.999814) translate(494.059000,423.605000)" fill="rgb(0,0,0)" stroke="none" stroke-width="1"/></g><g id="epkd9jgrn3e7_to" transform="translate(-86.737000,102.270000)"><ellipse id="epkd9jgrn3e7" rx="17.941000" ry="17.941000" transform="rotate(-13.299584) scale(0.999814,0.999814) translate(395.803000,423.605000)" fill="rgb(0,0,0)" stroke="none" stroke-width="1"/></g><g id="epkd9jgrn3e8_to" transform="translate(-151.299487,-124.916011)"><ellipse id="epkd9jgrn3e8" rx="17.941000" ry="17.941000" transform="rotate(-13.299584) scale(0.999814,0.999814) translate(318.469000,423.605000)" fill="rgb(0,0,0)" stroke="none" stroke-width="1"/></g></svg>